<svg height="511pt" viewBox="0 -22 511.99933 511" width="511pt" xmlns="http://www.w3.org/2000/svg"><path d="m349.667969 392.925781c6.875 28.339844 19.234375 66.019531 36.335937 66.019531 13.339844 0 22.171875-26.441406 27.730469-53.59375-32.191406 4.246094-58.738281-9.4375-64.066406-12.425781zm0 0" fill="#ffcb9d"/><path d="m187.886719 380.242188s-32.082031 18.167968-67.851563 14.367187c6.953125 28.125 19.15625 64.335937 35.921875 64.335937 17.519531 0 27.265625-45.597656 32.023438-78.519531-.054688-.105469-.09375-.183593-.09375-.183593zm0 0" fill="#ffcb9d"/><path d="m60.167969 209.804688s-36.167969-64.894532 0-115.132813c34.605469-48.070313 94.9375-30.386719 94.9375-30.386719s21.574219-48.441406 69.398437-55.9375c52.265625-8.191406 79.550782 33.824219 79.550782 33.824219s56.207031-27.660156 97.445312 5.089844c41.027344 32.578125 30.074219 75.742187 30.074219 75.742187s56.324219 2.28125 69.777343 54.46875c12.59375 48.839844-21.375 80.90625-21.375 80.90625s42.695313 79.457032-21.164062 128.035156c-53.457031 40.664063-110.121094 5.945313-110.121094 5.945313s-28.007812 39.535156-95.203125 31.28125c-46.660156-5.730469-65.601562-43.394531-65.601562-43.394531s-67.988281 38.507812-116.378907-8.324219c-54.296874-52.546875-11.339843-162.117187-11.339843-162.117187zm0 0" fill="#ffe9c8"/><path d="m187.980469 380.425781c-.054688-.105469-.09375-.183593-.09375-.183593s-32.082031 18.167968-67.851563 14.367187c2.179688 8.828125 4.882813 18.449219 8.078125 27.5 23.984375.472656 45.222657-7.902344 54.628907-12.285156 2.179687-9.9375 3.90625-20.167969 5.238281-29.398438zm0 0" fill="#ffba7e"/><path d="m349.667969 392.925781c2.429687 10.019531 5.550781 21.203125 9.320312 31.476563 10.3125 4.324218 27.488281 9.691406 47.46875 8.621094 2.882813-8.347657 5.289063-17.960938 7.277344-27.667969-32.191406 4.242187-58.738281-9.441407-64.066406-12.429688zm0 0" fill="#ffba7e"/><path d="m431.574219 96s.046875.003906.121093.007812c-.019531-.097656-.035156-.191406-.054687-.289062-.042969.1875-.066406.28125-.066406.28125zm0 0" fill="#ffdca7"/><path d="m458.8125 359.414062c-53.457031 40.664063-110.121094 5.945313-110.121094 5.945313s-28.003906 39.53125-95.203125 31.28125c-46.660156-5.734375-65.601562-43.398437-65.601562-43.398437s-67.988281 38.507812-116.378907-8.320313c-17.726562-17.160156-25.085937-40.398437-26.957031-63.917969-2.265625 31.691406 2.390625 67.140625 26.957031 90.917969 48.390626 46.828125 116.378907 8.320313 116.378907 8.320313s18.941406 37.664062 65.601562 43.398437c67.199219 8.25 95.203125-31.28125 95.203125-31.28125s56.664063 34.71875 110.121094-5.945313c32.871094-25.007812 37.507812-58.195312 34.269531-84.515624-2.664062 19.804687-11.957031 40.542968-34.269531 57.515624zm0 0" fill="#ffdca7"/><path d="m187.574219 203.601562c-9.003907-43.648437-57.644531-66.195312-97.394531-46.046874-37.109376 18.8125-85.507813 49.910156-82.128907 82.910156 4.125 40.320312 64.140625 57.328125 116.960938 50.082031 41.179687-5.648437 70.277343-44.148437 62.925781-85.058594-.113281-.628906-.234375-1.257812-.363281-1.886719zm0 0" fill="#ffcb9d"/><path d="m187.78125 204.683594c-5.808594 29.992187-30.601562 54.453125-62.769531 58.863281-48.03125 6.589844-102.007813-6.878906-114.503907-39.695313-2.105468 5.449219-3.03125 11.003907-2.457031 16.613282 4.125 40.320312 64.140625 57.328125 116.960938 50.082031 41.179687-5.648437 70.277343-44.148437 62.925781-85.058594-.046875-.269531-.101562-.539062-.15625-.804687zm0 0" fill="#ffba7e"/><path d="m158.367188 127.257812s-4.808594-31.992187 25.855468-30.355468c29.945313 1.601562 29.695313 38.648437 8.429688 45.425781zm0 0" fill="#ffcb9d"/><path d="m262.101562 417.214844c-2.539062-.179688-5.128906-.429688-7.699218-.746094-41.957032-5.152344-59.203125-38.007812-59.90625-39.378906-1.902344-3.777344-6.726563-5.25-10.414063-3.164063-.628906.359375-63.707031 35.308594-107.625-7.195312-17.25-16.695313-25.710937-41.640625-25.210937-74.253907 14.800781 4.761719 31.835937 7.304688 49.496094 7.304688 8.28125 0 16.707031-.554688 25.09375-1.707031 22.078124-3.027344 42.238281-15.089844 55.316406-33.085938 12.933594-17.800781 17.933594-39.421875 14.078125-60.871093-.125-.691407-.257813-1.382813-.398438-2.078126-.003906 0-.003906 0-.003906 0-4.710937-22.832031-19.542969-41.773437-40.695313-51.96875-21.589843-10.40625-46.226562-10.160156-67.597656.671876-12.167968 6.167968-23.152344 12.414062-32.886718 18.691406-4.203126-21.003906-4.207032-47.617188 12.324218-70.582032 12.933594-17.964843 31.289063-28.101562 54.5625-30.128906 17.914063-1.558594 32.179688 2.480469 32.304688 2.519532 3.601562 1.054687 7.433594-.71875 8.96875-4.140626.203125-.449218 20.65625-44.90625 63.8125-51.671874 4.097656-.640626 6.898437-4.484376 6.257812-8.582032s-4.484375-6.8984372-8.585937-6.257812c-41.820313 6.554687-64.777344 41.085937-72.367188 54.816406-6.597656-1.269531-17.921875-2.777344-31.125-1.699219-27.695312 2.265625-50.523437 14.839844-66.019531 36.367188-21.355469 29.664062-19.574219 63.660156-13.476562 88.558593-4.195313 3.113282-8.082032 6.226563-11.644532 9.339844-20.652344 18.035156-30.222656 35.957032-28.453125 53.265625 1.417969 13.859375 8.671875 26.300781 20.980469 35.976563 4.453125 3.5 9.570312 6.625 15.214844 9.359375-1.722656 39.667969 8.21875 70.25 29.605468 90.949219 13.441407 13.007812 29.617188 21.097656 47.789063 24.066406 11.421875 43.851562 25.183594 65.203125 42.011719 65.203125 17.152344 0 25.277344-24.140625 27.949218-32.070313 3.207032-9.53125 6.089844-21.25 8.613282-34.96875 10.9375 12.351563 30.292968 27.949219 60.199218 31.625 2.828126.347656 5.679688.621094 8.476563.820313.179687.011719.359375.015625.535156.015625 3.910157 0 7.207031-3.023438 7.484375-6.984375.292969-4.136719-2.828125-7.726563-6.964844-8.015625zm-246.949218-177.507813c-2.253906-22.03125 25.507812-48.867187 78.175781-75.566406 8.765625-4.441406 18.214844-6.664063 27.671875-6.664063 9.058594 0 18.128906 2.039063 26.609375 6.125 16.902344 8.144532 28.75 23.261719 32.507813 41.472657.117187.566406.222656 1.132812.328124 1.699219 3.125 17.386718-.941406 34.925781-11.449218 49.386718-10.683594 14.703125-27.15625 24.554688-45.199219 27.03125-36.007813 4.941406-73.511719-2.207031-93.324219-17.785156-9.15625-7.199219-14.3125-15.847656-15.320312-25.699219zm154.363281 190.226563c-7.140625 21.222656-13.054687 21.835937-13.707031 21.835937-6.015625 0-16.179688-13.042969-26.109375-48.898437 6.21875.015625 12.625-.5 19.195312-1.574219 11.714844-1.917969 21.914063-5.246094 29.398438-8.210937-2.554688 14.667968-5.542969 27.242187-8.777344 36.847656zm0 0"/><path d="m486.925781 254.855469c-1.960937-3.648438-6.503906-5.015625-10.160156-3.058594-3.652344 1.957031-5.027344 6.507813-3.078125 10.164063.101562.1875 10.164062 19.261718 12.582031 43.550781 3.136719 31.480469-7.527343 56.761719-31.703125 75.152343-20.328125 15.464844-43.496094 21.15625-68.863281 16.914063-19.351563-3.230469-32.832031-11.3125-32.953125-11.386719-3.34375-2.046875-7.726562-1.144531-10.03125 2.03125-.035156.050782-3.6875 5.046875-11.300781 10.824219-6.984375 5.300781-18.851563 12.382813-35.738281 16.019531-4.054688.875-6.632813 4.871094-5.757813 8.925782.757813 3.523437 3.871094 5.933593 7.335937 5.933593.523438 0 1.054688-.058593 1.589844-.171875 22.703125-4.894531 37.941406-15.144531 46.746094-22.902344 11.128906 40.292969 24.457031 59.941407 40.605469 59.941407 14.96875 0 25.835937-17.398438 34.046875-54.605469 15.511718-2.917969 30.164062-9.484375 43.414062-19.566406 28.347656-21.5625 41.316406-52.378906 37.503906-89.109375-2.8125-27.140625-13.773437-47.789063-14.238281-48.65625zm-100.726562 196.914062c-1.582031 0-7.355469-1.304687-15.238281-18.097656-3.429688-7.308594-6.730469-16.414063-9.851563-27.179687 5.917969 2.1875 13.210937 4.371093 21.507813 5.800781 7.382812 1.273437 14.671874 1.800781 21.828124 1.589843-8.960937 37.417969-17.84375 37.886719-18.246093 37.886719zm0 0"/><path d="m508.992188 175.511719c-6.097657-23.65625-21.378907-41.585938-44.183594-51.851563-9.425782-4.238281-18.285156-6.332031-24.402344-7.359375 1.359375-15.289062-.335938-48.453125-34.015625-75.203125-18.554687-14.734375-42.777344-20.402344-70.046875-16.394531-12.914062 1.894531-23.601562 5.519531-29.785156 7.957031-7.285156-8.8125-24.789063-26.316406-52.320313-31.65625-4.078125-.792968-8.015625 1.871094-8.804687 5.941406-.792969 4.074219 1.871094 8.015626 5.941406 8.804688 30.097656 5.839844 46.300781 30 46.449219 30.222656 2.070312 3.191406 6.203125 4.328125 9.617187 2.648438.519532-.253906 52.457032-25.257813 89.605469 4.242187 36.570313 29.042969 27.886719 66.570313 27.507813 68.125-1.152344 4.546875 2.285156 9.140625 6.960937 9.351563 2.078125.09375 51.050781 2.839844 62.929687 48.921875 4.523438 17.546875 3.09375 34.75-4.253906 51.136719-1.566406 3.492187-.175781 7.722656 3.15625 9.609374 3.800782 2.152344 8.765625.515626 10.550782-3.464843 8.652343-19.292969 10.414062-40.398438 5.09375-61.03125zm0 0"/><path d="m114.722656 228.636719c8.523438 0 15.199219-8.289063 15.199219-18.871094 0-10.578125-6.675781-18.867187-15.199219-18.867187-8.523437 0-15.199218 8.289062-15.199218 18.867187 0 10.582031 6.675781 18.871094 15.199218 18.871094zm0 0"/><path d="m184.515625 89.199219c-11.148437-.601563-19.863281 2.480469-25.917969 9.140625-10.253906 11.285156-8.085937 28.003906-7.804687 29.875.382812 2.546875 2.046875 4.722656 4.40625 5.757812l34.335937 15.097656c1.664063.730469 3.570313.832032 5.304688.28125 13.582031-4.332031 22.035156-18.425781 20.097656-33.519531-1.960938-15.296875-13.902344-25.75-30.421875-26.632812zm8.125 44.828125-27.1875-11.957032c.066406-4.175781.945313-10.007812 4.300781-13.667968 2.910156-3.175782 7.476563-4.558594 13.960938-4.203125 13.253906.707031 15.832031 9.707031 16.324218 13.542969.769532 6.015624-1.570312 13.089843-7.398437 16.285156zm0 0"/></svg>