<svg id="_x33_0" enable-background="new 0 0 64 64" height="512" viewBox="0 0 64 64" width="512" xmlns="http://www.w3.org/2000/svg"><g><g><g><path d="m32 51c-5 6.42-17 6-17 6 2-7 8-9 8-9-3.33.48-9-2.16-13-6-4.42-4.24-7-9.75-7-9.75 10.66.89 20.37 7.33 20.97 7.73-11.79-10.84-17.78-27.37-17.96-27.89 15.99 7.33 18.99 16.91 18.99 16.91-2-14.67 7-27 7-27s9 12.33 7 27c0 0 3-9.58 18.99-16.91-.18.52-6.17 17.05-17.96 27.89.6-.4 10.31-6.84 20.97-7.73 0 0-2.58 5.51-7 9.75-4 3.84-9.67 6.48-13 6 0 0 6 2 8 9 0 0-12 .42-17-6z" fill="#b4dd7f"/></g></g><g><path d="m31 27h2v2h-2z"/><path d="m31 11h2v14h-2z"/><path d="m51.53 39.848-1.06-1.696c-.007.004-.663.411-1.833.98l.875 1.799c1.276-.621 1.988-1.065 2.018-1.083z"/><path d="m60.917 31.254c-5.938.494-11.534 2.634-15.526 4.565 8.895-10.465 13.338-22.8 13.552-23.402l.791-2.229-2.15.985c-9.749 4.469-14.791 9.751-17.289 13.342-.044-12.743-7.149-22.642-7.487-23.105l-.808-1.106-.808 1.106c-.338.463-7.443 10.362-7.486 23.105-2.498-3.591-7.54-8.873-17.289-13.342l-2.15-.985.791 2.229c.214.603 4.657 12.938 13.552 23.402-3.992-1.932-9.588-4.071-15.526-4.565l-1.723-.144.733 1.564c.108.231 2.714 5.727 7.213 10.047 3.064 2.942 7.002 5.163 10.32 5.985-1.988 1.428-4.419 3.922-5.59 8.019l-.351 1.229 1.277.044c.465.019 10.247.289 16.037-4.547v9.549h2v-9.547c5.09 4.251 13.263 4.554 15.48 4.554.306 0 .499-.006.555-.008l1.277-.044-.351-1.229c-1.171-4.097-3.602-6.591-5.59-8.019 3.318-.822 7.256-3.043 10.32-5.985 4.499-4.32 7.104-9.815 7.213-10.047l.733-1.564zm-7.609 10.024c-3.732 3.585-9.188 6.159-12.166 5.731l-.458 1.938c.052.018 4.778 1.651 6.917 7.038-3.133-.113-10.845-.868-14.601-5.36v-3.013c3.671 3.696 7.444 5.242 7.629 5.315l.742-1.857c-.045-.018-4.4-1.802-8.098-6.112 5.972-.205 10.997-1.776 14.232-3.124l-.77-1.846c-2.94 1.224-7.423 2.651-12.759 2.947 6.702-9.393 14.713-19.2 14.798-19.304l-1.549-1.266c-.082.1-7.627 9.337-14.226 18.5v-9.865h-2v9.866c-4.382-6.086-9.149-12.16-11.792-15.475l-1.564 1.246c2.764 3.466 7.857 9.96 12.384 16.307-9.55-.534-16.425-4.747-16.499-4.793l-1.06 1.696c.324.203 7.762 4.759 18.24 5.117-1.31 1.526-2.829 2.91-4.551 4.102l1.139 1.645c1.35-.935 2.58-1.985 3.703-3.117v3.031c-3.749 4.484-11.467 5.243-14.602 5.359 2.113-5.344 6.711-6.966 6.918-7.036l-.458-1.938c-2.979.427-8.434-2.146-12.166-5.731-2.786-2.675-4.839-5.911-5.921-7.819 9.861 1.426 18.572 7.304 18.665 7.367l1.239-1.563c-9.044-8.293-14.686-20.161-16.793-25.158 13.352 6.847 16.138 15.108 16.165 15.192l1.945-.434c-1.564-11.474 3.89-21.617 6.01-25.044 2.121 3.423 7.575 13.552 6.008 25.044l1.944.437c.028-.087 2.816-8.35 16.167-15.196-2.105 4.994-7.742 16.857-16.796 25.157l1.24 1.563c.092-.063 8.79-5.94 18.665-7.367-1.079 1.906-3.129 5.14-5.921 7.82z"/><path d="m15.227 23.634c.001.001.443.542 1.206 1.49l1.559-1.254c-.771-.958-1.218-1.504-1.218-1.504z"/><path d="m23.371 52.929c.036-.015.895-.36 2.173-1.104l-1.006-1.729c-1.14.662-1.902.972-1.91.976z"/></g></g></svg>