<svg height="512" viewBox="0 0 512 512" width="512" xmlns="http://www.w3.org/2000/svg"><g id="Fill_out_line" data-name="Fill out line"><path d="m232 248-111.43147 111.43147a56.5685 56.5685 0 0 0 -16.56853 40v.00008a56.56848 56.56848 0 0 0 56.56849 56.56845h.00008a56.5685 56.5685 0 0 0 40-16.56853l87.43143-87.43147 24 24-85.49036 85.49036a90.50956 90.50956 0 0 1 -63.99993 26.50964h-.00013a90.50958 90.50958 0 0 1 -90.50958-90.50958v-.00013a90.50956 90.50956 0 0 1 26.50964-63.99993l109.49036-109.49036z" fill="#bc8d5d"/><path d="m272 208 87.43147-87.43147a56.5685 56.5685 0 0 1 40-16.56853h.00008a56.56848 56.56848 0 0 1 56.56845 56.56849v.00008a56.5685 56.5685 0 0 1 -16.56853 40l-87.43147 87.43143 24 24 85.49036-85.49036a90.50956 90.50956 0 0 0 26.50964-63.99993v-.00013a90.50958 90.50958 0 0 0 -90.50958-90.50958h-.00013a90.50956 90.50956 0 0 0 -63.99993 26.50964l-85.49036 85.49036z" fill="#bc8d5d"/><path d="m208 224-111.43147 111.43147a56.5685 56.5685 0 0 0 -16.56853 40v.00008a56.56848 56.56848 0 0 0 56.56849 56.56845h.00008a56.5685 56.5685 0 0 0 40-16.56853l87.43143-87.43147 24 24-85.49036 85.49036a90.50956 90.50956 0 0 1 -63.99993 26.50964h-.00013a90.50958 90.50958 0 0 1 -90.50958-90.50958v-.00013a90.50956 90.50956 0 0 1 26.50964-63.99993l109.49036-109.49036z" fill="#a1764a"/><path d="m248 184 87.43147-87.43147a56.5685 56.5685 0 0 1 40-16.56853h.00008a56.56848 56.56848 0 0 1 56.56845 56.56849v.00008a56.5685 56.5685 0 0 1 -16.56853 40l-87.43147 87.43143 24 24 85.49036-85.49036a90.50956 90.50956 0 0 0 26.50964-63.99993v-.00013a90.50958 90.50958 0 0 0 -90.50958-90.50958h-.00013a90.50956 90.50956 0 0 0 -63.99993 26.50964l-85.49036 85.49036z" fill="#a1764a"/><path d="m184 200-111.43147 111.43147a56.5685 56.5685 0 0 0 -16.56853 40v.00008a56.56848 56.56848 0 0 0 56.56849 56.56845h.00008a56.5685 56.5685 0 0 0 40-16.56853l87.43143-87.43147 24 24-85.49036 85.49036a90.50956 90.50956 0 0 1 -63.99993 26.50964h-.00013a90.50958 90.50958 0 0 1 -90.50958-90.50958v-.00013a90.50956 90.50956 0 0 1 26.50964-63.99993l109.49036-109.49036z" fill="#bc8d5d"/><path d="m224 160 87.43147-87.43147a56.5685 56.5685 0 0 1 40-16.56853h.00008a56.56848 56.56848 0 0 1 56.56845 56.56849v.00008a56.5685 56.5685 0 0 1 -16.56853 40l-87.43147 87.43143 24 24 85.49036-85.49036a90.50956 90.50956 0 0 0 26.50964-63.99993v-.00013a90.50958 90.50958 0 0 0 -90.50958-90.50958h-.00013a90.50956 90.50956 0 0 0 -63.99993 26.50964l-85.49036 85.49036z" fill="#bc8d5d"/><path d="m364.686 271.029h22.627v33.941h-22.627z" fill="#a1764a" transform="matrix(.707 -.707 .707 .707 -93.519 350.225)"/><path d="m316.686 223.029h22.627v33.941h-22.627z" fill="#a1764a" transform="matrix(.707 -.707 .707 .707 -73.637 302.225)"/><path d="m340.686 247.029h22.627v33.941h-22.627z" fill="#8c6231" transform="matrix(.707 -.707 .707 .707 -83.578 326.225)"/><path d="m260.686 167.029h22.627v33.941h-22.627z" fill="#a1764a" transform="matrix(.707 -.707 .707 .707 -50.441 246.225)"/><path d="m212.686 119.029h22.627v33.941h-22.627z" fill="#a1764a" transform="matrix(.707 -.707 .707 .707 -30.558 198.225)"/><path d="m236.686 143.029h22.627v33.941h-22.627z" fill="#8c6231" transform="matrix(.707 -.707 .707 .707 -40.5 222.225)"/><path d="m172.686 255.029h22.627v33.941h-22.627z" fill="#a1764a" transform="matrix(.707 -.707 .707 .707 -138.441 209.775)"/><path d="m124.686 207.029h22.627v33.941h-22.627z" fill="#a1764a" transform="matrix(.707 -.707 .707 .707 -118.558 161.775)"/><g fill="#8c6231"><path d="m148.686 231.029h22.627v33.941h-22.627z" transform="matrix(.707 -.707 .707 .707 -128.5 185.775)"/><path d="m252.686 383.029h22.627v33.941h-22.627z" transform="matrix(.707 -.707 .707 .707 -205.519 303.833)"/><path d="m204.686 335.029h22.627v33.941h-22.627z" transform="matrix(.707 -.707 .707 .707 -185.637 255.833)"/></g><path d="m228.686 359.029h22.627v33.941h-22.627z" fill="#7d572a" transform="matrix(.707 -.707 .707 .707 -195.578 279.833)"/><path d="m488 240v32h-15.42993a136.48239 136.48239 0 0 0 -74.47 22.1 134.14058 134.14058 0 0 0 -18.01 13.99c-1.39014 1.26-2.75 2.56994-4.09009 3.91l-24-24 8-8a136.61718 136.61718 0 0 1 96.57007-40z" fill="#a1764a"/><rect fill="#bc8d5d" height="305.47" rx="16.971" transform="matrix(.707 -.707 .707 .707 -82.039 265.941)" width="33.941" x="263.029" y="79.265"/><rect fill="#a1764a" height="305.47" rx="16.971" transform="matrix(.707 -.707 .707 .707 -106.039 256)" width="33.941" x="239.029" y="103.265"/><path d="m232 127.26494a16.97055 16.97055 0 0 1 16.97055 16.97055v271.529a16.97055 16.97055 0 0 1 -16.97055 16.97057 16.97055 16.97055 0 0 1 -16.97055-16.97055v-271.529a16.97054 16.97054 0 0 1 16.97055-16.97057z" fill="#bc8d5d" transform="matrix(.707 -.707 .707 .707 -130.039 246.059)"/><rect fill="#a1764a" height="135.765" rx="16.971" transform="matrix(.707 -.707 .707 .707 -175.578 288.118)" width="33.941" x="243.029" y="288.118"/><path d="m398.1001 294.1a134.14058 134.14058 0 0 0 -18.01 13.99l-24.0901-24.09 4-4a135.50775 135.50775 0 0 1 12.75-11.25z" fill="#8c6231"/><path d="m488 232h-20.68994a98.50117 98.50117 0 0 0 -13.23486-150.12256 98.62907 98.62907 0 0 0 -24.05762-24.04407 98.4613 98.4613 0 0 0 -150.18458-12.98037l-75.833 75.833-2.34277-2.34278a24.95337 24.95337 0 0 0 -42.59351 16.70886 24.93 24.93 0 0 0 -24 24 24.96515 24.96515 0 0 0 -16.72095 42.60462l2.34323 2.3433-75.8335 75.8335a98.46123 98.46123 0 0 0 12.98686 150.18823 98.66668 98.66668 0 0 0 24.06079 24.08594 98.505 98.505 0 0 0 150.26685 13.03933l52.75928-52.7594a24.95406 24.95406 0 0 0 34.853-14.7998 24.95626 24.95626 0 0 0 33.157-22.63989 24.93 24.93 0 0 0 24-24 24.96515 24.96515 0 0 0 16.721-42.60462l-1.82666-1.82666a128.182 128.182 0 0 1 80.73774-28.51663h15.43164a8.00008 8.00008 0 0 0 8-8v-32a8.00008 8.00008 0 0 0 -8-8zm-8-69.49023a81.97217 81.97217 0 0 1 -24.167 58.34323l-11.67992 11.68a144.15021 144.15021 0 0 0 -31.656 6.28406l30.65039-30.65052a98.34233 98.34233 0 0 0 27.94165-82.9414 82.42872 82.42872 0 0 1 8.91088 37.28463zm-24-24a81.97217 81.97217 0 0 1 -24.167 58.34323l-75.833 75.833-12.686-12.686 75.8335-75.8335a97.86791 97.86791 0 0 0 28.8525-69.65673 98.94468 98.94468 0 0 0 -.89014-13.22193 82.43207 82.43207 0 0 1 8.89014 37.22193zm-164.85254-82.34327a82.50949 82.50949 0 1 1 116.68554 116.6865l-75.833 75.833-12.686-12.686 77.77491-77.7749a64.56873 64.56873 0 0 0 -91.31446-91.31348l-77.77445 77.77438-12.686-12.686zm-51.83346 99.8335 77.77491-77.7749a48.51016 48.51016 0 0 1 61.106-6.15845c-.9205-.03955-1.84139-.06665-2.76327-.06665a64.14655 64.14655 0 0 0 -45.65723 18.91162l-77.77441 77.77438zm101.77491-53.7749a48.59011 48.59011 0 0 1 54.49536-9.853c.553 1.20435 1.06665 2.42993 1.52173 3.68457a64.10143 64.10143 0 0 0 -43.33155 18.855l-77.77445 77.77433-12.686-12.686zm24 24a48.24786 48.24786 0 0 1 34.34273-14.2251c.18457 0 .36963.00757.5542.00977.0022.18676.01416.37121.01416.55859a48.24911 48.24911 0 0 1 -14.22559 34.34326l-77.77441 77.77438-20.686-20.686zm-333.08891 223.26513a81.97217 81.97217 0 0 1 24.167-58.34323l75.833-75.833 12.686 12.686-77.77487 77.7749a64.56873 64.56873 0 0 0 91.31446 91.31348l53.77441-53.77438 12.686 12.686-51.8335 51.8335a82.50949 82.50949 0 0 1 -140.8525-58.34327zm169.62109-18.42529-54.71 54.71a48.24786 48.24786 0 0 1 -34.34273 14.22506c-.18726 0-.37183-.012-.55859-.01416-.0022-.18481-.00977-.36963-.00977-.5542a48.24911 48.24911 0 0 1 14.22559-34.34326l77.77441-77.77438 9.86011 9.86011a24.98263 24.98263 0 0 0 -12.239 33.89087zm-86.71 22.71a64.09968 64.09968 0 0 0 -18.85449 43.33093c-1.25488-.455-2.48071-.96875-3.6853-1.52185a48.59225 48.59225 0 0 1 9.85425-54.4956l77.77445-77.77442 12.686 12.686zm-24-24a64.14493 64.14493 0 0 0 -18.91109 45.6567c0 .92188.0271 1.8429.06665 2.76306a48.51 48.51 0 0 1 6.15894-61.10632l77.77441-77.77438 12.686 12.686zm10.34693 117.33081a98.97514 98.97514 0 0 0 13.25175.89425 97.86415 97.86415 0 0 0 69.65723-28.853l51.833-51.833 12.686 12.686-51.8335 51.8335a82.49 82.49 0 0 1 -95.59448 15.27221zm119.59448 8.72779a82.50742 82.50742 0 0 1 -95.63574 15.25708 98.38193 98.38193 0 0 0 82.95024-27.94362l51.833-51.833 12.686 12.686zm81.49023-57.49024a8.9696 8.9696 0 0 1 -12.68554 0l-72-72a8.97038 8.97038 0 1 1 12.68554-12.68652l72 72a8.98022 8.98022 0 0 1 .00004 12.68648zm32-16a8.9696 8.9696 0 0 1 -12.68554 0l-8-8-72-72-112-112a8.97038 8.97038 0 1 1 12.68554-12.68652l192 192a8.98022 8.98022 0 0 1 .00004 12.68648zm24-24a8.9696 8.9696 0 0 1 -12.68554 0l-192-192a8.97038 8.97038 0 1 1 12.68554-12.68652l192 192a8.98022 8.98022 0 0 1 .00004 12.68648zm24-24a8.9696 8.9696 0 0 1 -12.68554 0l-192-192a8.97038 8.97038 0 1 1 12.68554-12.68652l192 192a8.98022 8.98022 0 0 1 .00004 12.68648zm97.65727-70.3433h-7.43164a144.14028 144.14028 0 0 0 -92.10742 33.147l-13.127-13.12683a127.68208 127.68208 0 0 1 89.23442-36.02017h23.43164z"/></g></svg>